# xmcd
# 
# Track frame offsets:
#     150
#     23004
#     42043
#     63719
#     78216
#     85742
#     103279
#     128999
#     149333
#     169850
#     212662
#     222144
#     254660
#     269234
#     281605
#     293973
#     312771
#     337373
# 
# Disc length: 4634
# 
# Revision: 3
# Processed by: cddbd v1.5.2PL0 Copyright (c) Steve Scherf et al.
# Submitted via: fre:ac v1.0.31
# 
DISCID=21121812
DTITLE=Original Soundtrack - Twin Peaks: Limited Event Series Soundtrack
DYEAR=2017
DGENRE=Soundtrack
TTITLE0=Angelo Badalamenti - Twin Peaks Theme
TTITLE1=Muddy Magnolias - American Woman [David Lynch Remix]
TTITLE2=Angelo Badalamenti - Laura Palmer's Theme (Love Theme From Twin Peaks)
TTITLE3=Angelo Badalamenti - Accident/Farewell Theme
TTITLE4=Angelo Badalamenti featuring Grady Tate - Grady Groove
TTITLE5=Johnny Jewel - Windswept (Reprise)
TTITLE6=Angelo Badalamenti - Dark Mood Woods/The Red Room
TTITLE7=Angelo Badalamenti - The Chair
TTITLE8=Angelo Badalamenti - Deer Meadow Shuffle
TTITLE9=Warsaw National Philharmonic Orchestra/Witold Rowicki - Threnody To The Victims Of Hiroshima
TTITLE10=David Lynch and Dean Hurley - Slow 30's Room
TTITLE11=Angelo Badalamenti - The Fireman
TTITLE12=Chromatics - Saturday [Instrumental]
TTITLE13=Thought Gang (Angelo Badalamenti and David Lynch) - Headless Chicken
TTITLE14=Angelo Badalamenti - Night
TTITLE15=Angelo Badalamenti - Heartbreaking
TTITLE16=Angelo Badalamenti - Audrey's Dance
TTITLE17=Angelo Badalamenti - Dark Space Low
EXTD=
EXTT0=
EXTT1=
EXTT2=
EXTT3=
EXTT4=
EXTT5=
EXTT6=
EXTT7=
EXTT8=
EXTT9=
EXTT10=
EXTT11=
EXTT12=
EXTT13=
EXTT14=
EXTT15=
EXTT16=
EXTT17=
PLAYORDER=
